<?xml version="1.0" encoding="utf-8"?>
<!-- Generator: Adobe Illustrator 27.3.1, SVG Export Plug-In . SVG Version: 6.00 Build 0)  -->
<svg version="1.1" id="Layer_1" xmlns="http://www.w3.org/2000/svg" xmlns:xlink="http://www.w3.org/1999/xlink" x="0px" y="0px"
	 viewBox="0 0 512 512" style="enable-background:new 0 0 512 512;" xml:space="preserve">
<style type="text/css">
	.st0{fill:#141720;}
</style>
<g id="keyboard-arrow-return" transform="translate(0.5 0.5)">
	<g id="Path_74">
		<path class="st0" d="M355.5,454.5h-99.6c-11,0-19.9-8.9-19.9-19.9c0-11,8.9-19.9,19.9-19.9h99.6c60.4,0,109.6-49.2,109.6-109.6
			s-49.2-109.6-109.6-109.6H74.7l65.7,65.6c3.8,3.8,5.8,8.8,5.9,14.1c0,5.3-2.1,10.3-5.8,14.1c-7.8,7.8-20.4,7.8-28.2,0l-99.6-99.6
			c-3.8-3.8-5.8-8.8-5.8-14.1c0-5.4,2.2-10.8,6.3-14.5l99.2-99.2c3.7-3.7,8.8-5.8,14.1-5.8c0,0,0,0,0.1,0c5.3,0,10.4,2.2,14.1,5.9
			c3.7,3.7,5.8,8.7,5.8,14c0,5.3-2.1,10.3-5.8,14.1l-65.5,65.6h280.6c82.4,0,149.4,67,149.4,149.4
			C504.9,387.5,437.9,454.5,355.5,454.5z"/>
	</g>
</g>
</svg>
