<svg xmlns="http://www.w3.org/2000/svg" xmlns:xlink="http://www.w3.org/1999/xlink" width="27" height="22" viewBox="0 0 27 22">
  <defs>
    <clipPath id="clip-path">
      <rect id="Rectangle_51" data-name="Rectangle 51" width="27" height="22" transform="translate(-1 -1.001)" fill="none"/>
    </clipPath>
  </defs>
  <g id="Group_53" data-name="Group 53" transform="translate(1 1)">
    <g id="Group_52" data-name="Group 52" clip-path="url(#clip-path)">
      <path id="Path_75" data-name="Path 75" d="M17.5,20h-5a1,1,0,0,1,0-2h5a5.5,5.5,0,0,0,0-11H3.409l3.3,3.292a1,1,0,1,1-1.414,1.416l-5-5A1,1,0,0,1,.314,5.27L5.292.292A1,1,0,0,1,6,0H6A1,1,0,0,1,6.71.3a1,1,0,0,1,0,1.41L3.417,5H17.5a7.5,7.5,0,0,1,0,15" fill="#141720"/>
    </g>
  </g>
</svg>
